<svg xmlns="http://www.w3.org/2000/svg" xmlns:xlink="http://www.w3.org/1999/xlink" xml:space="preserve" x="0px" y="0px" viewBox="0 0 845 1080"><defs><path id="a" d="M719.52 964.41H126.38V397.28c0-163.31 132.39-295.7 295.7-295.7h1.75c163.31 0 295.7 132.39 295.7 295.7v567.13z"/></defs><clipPath id="b"><use xlink:href="#a" style="overflow:visible"/></clipPath><g style="clip-path:url(#b)"><path d="M719.52 964.41H126.38V396.48c0-162.86 132.75-294.89 296.5-294.89h.13c163.75 0 296.5 132.03 296.5 294.89v567.93z" style="fill:#1f8040"/></g><g style="clip-path:url(#b)"><path d="M536.22 121.52c-18.98 43.58-62.63 74.07-113.44 74.07s-94.46-30.49-113.44-74.07v-24.6h231.65z" style="fill:#fdf6bd"/><path d="M422.77 198.34c-50.42 0-95.95-29.72-115.99-75.73l-.23-.52V94.16h237.78l-5.58 28.45c-20.03 46.01-65.56 75.73-115.98 75.73m-110.67-77.4c19.28 43.69 62.65 71.88 110.67 71.88 48.11 0 91.56-28.3 110.78-72.13l4.07-21.03H312.1z" style="fill:#2e2e2e"/></g><g style="clip-path:url(#b)"><path d="M420 215.01h5.54v116.57H420z" style="fill:#2e2e2e"/></g><g style="clip-path:url(#b)"><path d="m234.33 280.01-3.81-4 87.38-82.43 3.81 4z" style="fill:#2e2e2e"/></g><g style="clip-path:url(#b)"><path d="m606.22 280.01-87.38-82.43 3.81-4 87.38 82.43z" style="fill:#2e2e2e"/></g><g style="clip-path:url(#b)"><path d="M672.96 695.5h46.56v5.51h-46.56z" style="fill:#2e2e2e"/></g><g style="clip-path:url(#b)"><path d="M126.38 695.5h90.45v5.51h-90.45z" style="fill:#2e2e2e"/></g><g style="clip-path:url(#b)"><path d="M126.38 951.07v-22.44l91.98-107.54h408.6l92.56 108.22v35.1H126.38z" style="fill:#fdf6bd"/><path d="M722.29 967.16H123.61v-39.54l93.47-109.28h411.16l94.05 109.96zm-593.14-5.51h587.6v-31.33l-91.07-106.47H219.65l-90.49 105.79v32.01z" style="fill:#2e2e2e"/></g><g style="clip-path:url(#b)"><path d="M628.72 655.07h42.95v83.56s0 16.71-14.32 16.71h-28.63" style="fill:#fdf6bd"/><path d="M657.35 758.09h-28.63v-5.51h28.63c11.34 0 11.54-13.39 11.54-13.96v-80.8h-40.17v-5.51h45.72v86.32c-.01 6.73-3.58 19.46-17.09 19.46" style="fill:#2e2e2e"/></g><g style="clip-path:url(#b)"><path d="M216.83 554.94h411.88v252.4H216.83z" style="fill:#fdf6bd"/><path d="M631.49 810.11H214.06V552.19h417.43zm-411.89-5.52h406.34V557.7H219.6z" style="fill:#2e2e2e"/></g><g style="clip-path:url(#b)"><path d="M645.59 607.05c-1.05 1.61-2.6 2.84-3.8 4.35-4.05 5.1-3.43 12.51-1.17 18.6s4.6 12.61 7.61 17.94c7.01-7.95 8.73-11.3 7.42-16.49-1.61-6.39-4.48-9.22-6.77-15.4-1.69-4.55 1.26-12.15-1.5-16.88-.1 2.73-.24 5.51-1.79 7.88" style="fill:#fdf6bd"/><path d="m647.72 652.69-1.92-3.4c-2.92-5.18-5.17-11.26-7.35-17.15l-.44-1.18c-3.1-8.34-2.51-16.09 1.6-21.26.58-.74 1.2-1.37 1.8-1.99.71-.73 1.38-1.43 1.85-2.15 1.1-1.68 1.25-3.83 1.34-6.47l.31-9.59 4.85 8.29c1.96 3.34 1.7 7.45 1.46 11.07-.15 2.34-.3 4.76.24 6.24.92 2.47 1.96 4.42 2.96 6.3 1.42 2.66 2.89 5.4 3.89 9.39 1.67 6.61-1 11.01-8.03 18.98zm-2.16-41.32-.15.15c-.53.55-1.03 1.06-1.45 1.59-2.84 3.58-3.12 9.54-.75 15.94l.44 1.18c1.61 4.33 3.25 8.78 5.14 12.77 4.48-5.48 4.96-7.71 4.16-10.89-.84-3.33-2.03-5.56-3.41-8.14-1.09-2.04-2.22-4.16-3.27-6.98-.64-1.72-.76-3.65-.71-5.62" style="fill:#2e2e2e"/></g><g style="clip-path:url(#b)"><path d="M257.48 590.98h139.05v127.75H257.48z" style="fill:#1f8040"/><path d="M399.3 721.48H254.71V588.22H399.3zm-139.05-5.51h133.5V593.74h-133.5z" style="fill:#2e2e2e"/></g><g style="clip-path:url(#b)"><path d="M443.37 590.98h138.07v127.75H443.37z" style="fill:#1f8040"/><path d="M584.21 721.48H440.6V588.22h143.61zm-138.07-5.51h132.53V593.74H446.14z" style="fill:#2e2e2e"/></g><g style="clip-path:url(#b)"><path d="M433.08 782.9h-20.6c-7.2 0-13.07-5.83-13.07-12.99s5.86-12.99 13.07-12.99h20.6c7.2 0 13.06 5.83 13.06 12.99 0 7.17-5.86 12.99-13.06 12.99m-20.61-20.47c-4.15 0-7.52 3.36-7.52 7.48s3.37 7.48 7.52 7.48h20.6c4.15 0 7.52-3.36 7.52-7.48s-3.37-7.48-7.52-7.48z" style="fill:#2e2e2e"/></g><g style="clip-path:url(#b)"><path d="M371.29 782.9c-7.21 0-13.07-5.83-13.07-12.99s5.86-12.99 13.07-12.99 13.07 5.83 13.07 12.99c0 7.17-5.87 12.99-13.07 12.99m0-20.47c-4.15 0-7.53 3.36-7.53 7.48s3.38 7.48 7.53 7.48 7.52-3.36 7.52-7.48-3.37-7.48-7.52-7.48" style="fill:#2e2e2e"/></g><g style="clip-path:url(#b)"><path d="M474.26 782.9c-7.21 0-13.07-5.83-13.07-12.99s5.86-12.99 13.07-12.99 13.07 5.83 13.07 12.99c0 7.17-5.86 12.99-13.07 12.99m0-20.47c-4.15 0-7.52 3.36-7.52 7.48s3.38 7.48 7.52 7.48c4.15 0 7.53-3.36 7.53-7.48-.01-4.12-3.38-7.48-7.53-7.48" style="fill:#2e2e2e"/></g><g style="clip-path:url(#b)"><path d="M224.62 807.35h5.54v13.75h-5.54z" style="fill:#2e2e2e"/></g><g style="clip-path:url(#b)"><path d="M616.65 807.35h5.54v13.75h-5.54z" style="fill:#2e2e2e"/></g><g style="clip-path:url(#b)"><path d="m147.21 283.72 69.12 49.87-20.73 45.83 57.9 32.64-55.9 53.47 19.23 43.56-33.55 45.85-56.9 36.04V344.72z" style="fill:#1f8040"/><path d="M123.61 596V344.27l22.19-64.97 73.98 53.38-20.62 45.59 58.93 33.22-57.18 54.69L220 509.43l-34.79 47.56zm5.54-250.82v240.78l52.2-33.06 32.3-44.15-19.37-43.87 54.61-52.24-56.86-32.06 20.84-46.08-64.25-46.35z" style="fill:#2e2e2e"/></g><g style="clip-path:url(#b)"><path d="m719.52 610.34-34.45-44.18 7.67-51.99-44.34-45.04 57.9-32.64-20.73-45.83 33.95-31.12z" style="fill:#1f8040"/><path d="m722.29 618.39-40.14-51.47 7.64-51.8-45.9-46.62 58.83-33.17-20.51-45.35 40.07-36.72v265.13zm-34.31-52.99 28.77 36.89V365.83l-27.83 25.51 20.94 46.31-56.96 32.11 42.78 43.45z" style="fill:#2e2e2e"/></g><g style="clip-path:url(#b)"><path d="M525.74 943.93H319.8l20.6-40.94h164.75z" style="fill:#fdf6bd"/><path d="M530.23 946.69H315.32l23.37-46.46h168.18zm-205.94-5.51h196.97l-17.82-35.43H342.11z" style="fill:#2e2e2e"/></g><g style="clip-path:url(#b)"><path d="M653.3 883.65H193.09l34.09-45.25h392.03z" style="fill:#fdf6bd"/><path d="M658.84 886.41h-471.3l38.25-50.77h394.8zm-460.21-5.52h449.13l-29.94-39.74H228.57z" style="fill:#2e2e2e"/></g><g style="clip-path:url(#b)"><path d="M374.38 454.47h-78.53l-63.88-19.61h-54.85L125 405l2.77-4.78 50.83 29.13h54.21l63.88 19.6h76.41l30.66-14.84 21.51-3.94 1 5.42-20.77 3.81z" style="fill:#2e2e2e"/></g><g style="clip-path:url(#b)"><path d="m128.19 401.59-3.07-4.59 30.74-20.34h39.74v5.52h-38.06z" style="fill:#2e2e2e"/></g><g style="clip-path:url(#b)"><path d="M404.63 475.13H365.4l-26.47-21.28 3.48-4.28 24.95 20.05h37.27z" style="fill:#2e2e2e"/></g><g style="clip-path:url(#b)"><path d="M555.69 536.53h-78.53l-31.13-15.07-20.76-3.81 1-5.42 21.51 3.94 30.65 14.84h76.42l63.88-19.6h73.1l25.51-18.6 3.28 4.45-26.98 19.66h-74.08z" style="fill:#2e2e2e"/></g><g style="clip-path:url(#b)"><path d="m719.39 487.5-36.94-14.76-34.12-.85.14-5.51 35.12.88 37.87 15.12z" style="fill:#2e2e2e"/></g><g style="clip-path:url(#b)"><path d="M486.16 557.7h-39.25v-5.51h37.25l24.94-20.54 3.53 4.24z" style="fill:#2e2e2e"/></g><g style="clip-path:url(#b)"><path d="m509.8 680.14-8.4-11.34 27.46-16.34v-18.42l-6.88.2-9.8 14.39-8.15-14.67h-7.65v20.89h-5.54v-26.41h16.46l5.36 9.65 6.32-9.27 15.43-.46v27.23l-24.92 14.83 4.78 6.45z" style="fill:#fdf6bd"/></g><g style="clip-path:url(#b)"><path d="m327.46 680.29-4.22-3.56 5.42-6.37-24.51-13.91v-28.01h16.46l5.37 9.65 6.32-9.27 15.42-.46v25.67h-5.54v-19.99l-6.89.2-9.8 14.39-8.15-14.67h-7.64v19.29l27.5 15.61z" style="fill:#fdf6bd"/></g><g style="clip-path:url(#b)"><path d="m290.52 401.23-50.54 50.72L269 433.37l21.77-5.76-1.25 13.11-.95 7.37 13.57-18.64s14.09 8.05 32.22 2.9 28.01-13.52 35.78-28.81 5.67-34.77 2.43-41.69-7.26-26.35-7.26-26.35l10.17-8.94s-5.18-1.56-12.79.37c0 0-7.36-10.47-22.09-7.25s-17.51 13.4-18.71 16.26c-4.41 10.55-1.13 7.56-12.14 22.37-11 14.81-19.75 43.78-19.75 43.78" style="fill:#fdf6bd"/><path d="m220.18 467.92 67.53-67.78c1.78-5.65 9.78-29.97 19.82-43.47 7.74-10.41 8.16-11.65 9.4-15.35.52-1.54 1.17-3.47 2.41-6.44.08-.2.17-.44.28-.72 1.46-3.8 5.34-13.89 20.39-17.18 12.96-2.83 20.84 3.78 23.72 6.88 7.34-1.47 12.33-.01 12.56.06l4.75 1.43-12.68 11.15c1.02 4.7 4.18 18.75 6.72 24.19 3.33 7.13 6.03 27.37-2.47 44.09-8.26 16.24-19.12 25-37.49 30.22-14.94 4.24-27.22.1-32.1-2.05l-18.58 25.52 2.33-18.09.86-9.08-17.5 4.63zm73.73-43.99-1.33 13.97 8.79-12.07 2.16 1.24c.12.07 13.36 7.38 30.08 2.64 16.94-4.81 26.49-12.49 34.07-27.4 7.2-14.16 5.41-32.82 2.39-39.28-3.34-7.13-7.29-26.16-7.46-26.96l-.32-1.56 6.52-5.73c-1.57.09-3.4.33-5.41.84l-1.86.47-1.1-1.56c-.25-.35-6.58-8.9-19.23-6.14-12.13 2.65-15.13 10.44-16.4 13.77-.13.33-.24.62-.34.86a79 79 0 0 0-2.27 6.08c-1.51 4.48-2.29 6.24-10.2 16.88-10.59 14.25-19.24 42.65-19.33 42.93l-.06.15-.1.14-32.69 32.81 8.07-5.17z" style="fill:#2e2e2e"/><path d="m324.96 450.97-1.78-15.05 5.51-.65 1.78 15.05zm-19.74-21-4.28-3.51 28.83-34.73 4.27 3.51zm50.91-24.82.47-6.07c.01-.09.66-9.93-4.85-14.93-6.25-5.66-8.11-6.98-8.19-7.03l-1.49-1.04.36-1.78c.41-2 .86-7.71-1.94-9.94-2.81-2.23-7.42-2.09-7.47-2.09l-.81.03-11.68-6.81 11.47-7.52 2.09-6.52c-.85-4.08-.4-11.43 6.73-14.89 2.78-1.34 5.77-1.37 7.57-1.2l4.71-4.99 4.04 3.77-6.77 7.17-1.54-.34c-.02 0-3.16-.64-5.59.54-5.28 2.56-3.8 8.61-3.61 9.29l.22.79-.24.79-2.92 9.11-5.67 3.71 2.64 1.54c1.95.05 6.74.48 10.28 3.29 4.6 3.65 4.51 10.41 4.17 13.61 1.27 1.03 3.55 2.95 7.36 6.41 4.36 3.95 5.91 9.66 6.44 13.87l11.33-8.45 3.33 4.41z" style="fill:#2e2e2e"/></g><g style="clip-path:url(#b)"><path d="m164.33 698.84-25.36-116.97 5.42-1.16 25.36 116.96z" style="fill:#2e2e2e"/></g><g style="clip-path:url(#b)"><path d="m561.8 481.16 50.54 50.72-29.02-18.59-21.77-5.76 1.25 13.11.95 7.37-13.57-18.64s-14.09 8.05-32.22 2.9-28.01-13.52-35.78-28.81-5.67-34.77-2.43-41.69 7.26-26.35 7.26-26.35l-10.17-8.94s5.18-1.56 12.79.37c0 0 7.36-10.47 22.09-7.25s17.51 13.4 18.71 16.26c4.41 10.55 1.13 7.57 12.14 22.37 11.01 14.81 19.75 43.78 19.75 43.78" style="fill:#fdf6bd"/><path d="m582.19 515.85-17.5-4.63.86 9.08 2.33 18.09-18.58-25.52c-4.89 2.15-17.17 6.29-32.1 2.05-18.38-5.22-29.24-13.97-37.49-30.22-8.5-16.72-5.8-36.97-2.47-44.09 2.55-5.44 5.71-19.49 6.72-24.19l-12.68-11.15 4.75-1.43c.22-.07 5.22-1.53 12.56-.06 2.88-3.1 10.76-9.71 23.72-6.88 15.05 3.29 18.93 13.38 20.39 17.18.11.27.2.51.28.72 1.24 2.97 1.89 4.9 2.41 6.44 1.25 3.7 1.66 4.94 9.4 15.35 10.04 13.5 18.04 37.82 19.82 43.47l67.53 67.78zm2.27-5.11 8.07 5.17-32.69-32.81-.1-.14-.06-.15c-.09-.29-8.73-28.69-19.33-42.93-7.91-10.64-8.7-12.4-10.2-16.88-.49-1.46-1.1-3.28-2.27-6.08-.1-.24-.21-.53-.34-.86-1.28-3.33-4.27-11.12-16.4-13.77-12.65-2.76-18.97 5.78-19.23 6.14l-1.1 1.56-1.86-.47c-2.02-.51-3.85-.75-5.41-.84l6.52 5.73-.32 1.56c-.17.81-4.12 19.83-7.46 26.96-3.02 6.46-4.81 25.12 2.39 39.28 7.58 14.91 17.13 22.59 34.07 27.4 16.72 4.75 29.95-2.57 30.08-2.64l2.16-1.24 8.79 12.07-1.33-13.97z" style="fill:#2e2e2e"/><path d="m527.37 530.89-5.51-.64 1.78-15.05 5.5.65zm19.74-21 4.28-3.51-28.83-34.72-4.28 3.51zm-50.91-24.81-.47-6.07c-.01-.09-.66-9.93 4.85-14.93 6.25-5.66 8.11-6.98 8.19-7.03l1.49-1.04-.36-1.78c-.41-2-.86-7.71 1.94-9.94 2.81-2.23 7.42-2.09 7.47-2.09l.81.03 11.68-6.81-11.47-7.52-2.09-6.52c.85-4.08.4-11.43-6.73-14.89-2.78-1.34-5.77-1.37-7.57-1.2l-4.71-4.99-4.04 3.77 6.77 7.17 1.54-.34c.02 0 3.16-.64 5.59.54 5.28 2.56 3.8 8.61 3.61 9.29l-.22.79.24.79 2.92 9.11 5.67 3.71-2.64 1.54c-1.95.05-6.74.48-10.28 3.29-4.6 3.65-4.51 10.41-4.17 13.61-1.27 1.03-3.55 2.95-7.37 6.41-4.36 3.95-5.91 9.66-6.44 13.87l-11.33-8.45-3.33 4.41z" style="fill:#2e2e2e"/></g><path d="M722.5 968h-600V396.36c0-79.7 31.21-154.62 87.87-210.98C267.03 129.03 342.37 98 422.5 98s155.47 31.04 212.13 87.39 87.87 131.28 87.87 210.98zm-593.07-6.9h586.14V396.36c0-160.72-131.47-291.48-293.07-291.48S129.43 235.64 129.43 396.36z" style="fill:#2e2e2e"/></svg>