<?xml version="1.0" encoding="utf-8"?>
<!-- Generator: Adobe Illustrator 26.1.0, SVG Export Plug-In . SVG Version: 6.00 Build 0)  -->
<svg version="1.1" id="Значок_колір" xmlns="http://www.w3.org/2000/svg" xmlns:xlink="http://www.w3.org/1999/xlink"
	 x="0px" y="0px" viewBox="0 0 845 1080" style="enable-background:new 0 0 845 1080;" xml:space="preserve">
<g>
	<g>
		<defs>
			<path id="SVGID_1_" d="M719.52,964.41H126.38V397.28c0-163.31,132.39-295.7,295.7-295.7h1.75c163.31,0,295.7,132.39,295.7,295.7
				V964.41z"/>
		</defs>
		<clipPath id="SVGID_00000157290069529739833290000002263197650774088339_">
			<use xlink:href="#SVGID_1_"  style="overflow:visible;"/>
		</clipPath>
		<g style="clip-path:url(#SVGID_00000157290069529739833290000002263197650774088339_);">
			<path style="fill:#1F8040;" d="M719.52,964.41H126.38V396.48c0-162.86,132.75-294.89,296.5-294.89h0.13
				c163.75,0,296.5,132.03,296.5,294.89V964.41z"/>
		</g>
		<g style="clip-path:url(#SVGID_00000157290069529739833290000002263197650774088339_);">
			<path style="fill:#FDF6BD;" d="M536.22,121.52c-18.98,43.58-62.63,74.07-113.44,74.07c-50.81,0-94.46-30.49-113.44-74.07v-24.6
				h231.65L536.22,121.52z"/>
			<path style="fill:#2E2E2E;" d="M422.77,198.34c-50.42,0-95.95-29.72-115.99-75.73l-0.23-0.52V94.16h237.78l-5.58,28.45
				C518.72,168.62,473.19,198.34,422.77,198.34z M312.1,120.94c19.28,43.69,62.65,71.88,110.67,71.88
				c48.11,0,91.56-28.3,110.78-72.13l4.07-21.03H312.1V120.94z"/>
		</g>
		<g style="clip-path:url(#SVGID_00000157290069529739833290000002263197650774088339_);">
			<rect x="420" y="215.01" style="fill:#2E2E2E;" width="5.54" height="116.57"/>
		</g>
		<g style="clip-path:url(#SVGID_00000157290069529739833290000002263197650774088339_);">
			<polygon style="fill:#2E2E2E;" points="234.33,280.01 230.52,276.01 317.9,193.58 321.71,197.58 			"/>
		</g>
		<g style="clip-path:url(#SVGID_00000157290069529739833290000002263197650774088339_);">
			<polygon style="fill:#2E2E2E;" points="606.22,280.01 518.84,197.58 522.65,193.58 610.03,276.01 			"/>
		</g>
		<g style="clip-path:url(#SVGID_00000157290069529739833290000002263197650774088339_);">
			<rect x="672.96" y="695.5" style="fill:#2E2E2E;" width="46.56" height="5.51"/>
		</g>
		<g style="clip-path:url(#SVGID_00000157290069529739833290000002263197650774088339_);">
			<rect x="126.38" y="695.5" style="fill:#2E2E2E;" width="90.45" height="5.51"/>
		</g>
		<g style="clip-path:url(#SVGID_00000157290069529739833290000002263197650774088339_);">
			<polygon style="fill:#FDF6BD;" points="126.38,951.07 126.38,928.63 218.36,821.09 626.96,821.09 719.52,929.31 719.52,953.4 
				719.52,964.41 126.38,964.41 			"/>
			<g>
				<path style="fill:#2E2E2E;" d="M722.29,967.16H123.61v-39.54l93.47-109.28h411.16l94.05,109.96V967.16z M129.15,961.65h587.6
					v-31.33l-91.07-106.47H219.65l-90.49,105.79V961.65z"/>
			</g>
		</g>
		<g style="clip-path:url(#SVGID_00000157290069529739833290000002263197650774088339_);">
			<path style="fill:#FDF6BD;" d="M628.72,655.07h42.95v83.56c0,0,0,16.71-14.32,16.71c-14.32,0-28.63,0-28.63,0"/>
			<g>
				<path style="fill:#2E2E2E;" d="M657.35,758.09h-28.63v-5.51h28.63c11.34,0,11.54-13.39,11.54-13.96v-80.8h-40.17v-5.51h45.72
					v86.32C674.43,745.36,670.86,758.09,657.35,758.09z"/>
			</g>
		</g>
		<g style="clip-path:url(#SVGID_00000157290069529739833290000002263197650774088339_);">
			<g>
				<rect x="216.83" y="554.94" style="fill:#FDF6BD;" width="411.88" height="252.4"/>
			</g>
			<g>
				<path style="fill:#2E2E2E;" d="M631.49,810.11H214.06V552.19h417.43V810.11z M219.6,804.59h406.34V557.7H219.6V804.59z"/>
			</g>
		</g>
		<g style="clip-path:url(#SVGID_00000157290069529739833290000002263197650774088339_);">
			<path style="fill:#FDF6BD;" d="M645.59,607.05c-1.05,1.61-2.6,2.84-3.8,4.35c-4.05,5.1-3.43,12.51-1.17,18.6
				s4.6,12.61,7.61,17.94c7.01-7.95,8.73-11.3,7.42-16.49c-1.61-6.39-4.48-9.22-6.77-15.4c-1.69-4.55,1.26-12.15-1.5-16.88
				C647.28,601.9,647.14,604.68,645.59,607.05z"/>
			<g>
				<path style="fill:#2E2E2E;" d="M647.72,652.69l-1.92-3.4c-2.92-5.18-5.17-11.26-7.35-17.15l-0.44-1.18
					c-3.1-8.34-2.51-16.09,1.6-21.26c0.58-0.74,1.2-1.37,1.8-1.99c0.71-0.73,1.38-1.43,1.85-2.15l0,0c1.1-1.68,1.25-3.83,1.34-6.47
					l0.31-9.59l4.85,8.29c1.96,3.34,1.7,7.45,1.46,11.07c-0.15,2.34-0.3,4.76,0.24,6.24c0.92,2.47,1.96,4.42,2.96,6.3
					c1.42,2.66,2.89,5.4,3.89,9.39c1.67,6.61-1,11.01-8.03,18.98L647.72,652.69z M645.56,611.37c-0.05,0.05-0.1,0.1-0.15,0.15
					c-0.53,0.55-1.03,1.06-1.45,1.59c-2.84,3.58-3.12,9.54-0.75,15.94l0.44,1.18c1.61,4.33,3.25,8.78,5.14,12.77
					c4.48-5.48,4.96-7.71,4.16-10.89c-0.84-3.33-2.03-5.56-3.41-8.14c-1.09-2.04-2.22-4.16-3.27-6.98
					C645.63,615.27,645.51,613.34,645.56,611.37z"/>
			</g>
		</g>
		<g style="clip-path:url(#SVGID_00000157290069529739833290000002263197650774088339_);">
			<rect x="257.48" y="590.98" style="fill:#1F8040;" width="139.05" height="127.75"/>
			<path style="fill:#2E2E2E;" d="M399.3,721.48H254.71V588.22H399.3V721.48z M260.25,715.97h133.5V593.74h-133.5V715.97z"/>
		</g>
		<g style="clip-path:url(#SVGID_00000157290069529739833290000002263197650774088339_);">
			<rect x="443.37" y="590.98" style="fill:#1F8040;" width="138.07" height="127.75"/>
			<path style="fill:#2E2E2E;" d="M584.21,721.48H440.6V588.22h143.61V721.48z M446.14,715.97h132.53V593.74H446.14V715.97z"/>
		</g>
		<g style="clip-path:url(#SVGID_00000157290069529739833290000002263197650774088339_);">
			<g>
				<path style="fill:#2E2E2E;" d="M433.08,782.9h-20.6c-7.2,0-13.07-5.83-13.07-12.99c0-7.16,5.86-12.99,13.07-12.99h20.6
					c7.2,0,13.06,5.83,13.06,12.99C446.14,777.08,440.28,782.9,433.08,782.9z M412.47,762.43c-4.15,0-7.52,3.36-7.52,7.48
					c0,4.12,3.37,7.48,7.52,7.48h20.6c4.15,0,7.52-3.36,7.52-7.48c0-4.12-3.37-7.48-7.52-7.48H412.47z"/>
			</g>
		</g>
		<g style="clip-path:url(#SVGID_00000157290069529739833290000002263197650774088339_);">
			<path style="fill:#2E2E2E;" d="M371.29,782.9c-7.21,0-13.07-5.83-13.07-12.99c0-7.16,5.86-12.99,13.07-12.99
				c7.21,0,13.07,5.83,13.07,12.99C384.36,777.08,378.49,782.9,371.29,782.9z M371.29,762.43c-4.15,0-7.53,3.36-7.53,7.48
				c0,4.12,3.38,7.48,7.53,7.48c4.15,0,7.52-3.36,7.52-7.48C378.81,765.79,375.44,762.43,371.29,762.43z"/>
		</g>
		<g style="clip-path:url(#SVGID_00000157290069529739833290000002263197650774088339_);">
			<path style="fill:#2E2E2E;" d="M474.26,782.9c-7.21,0-13.07-5.83-13.07-12.99c0-7.16,5.86-12.99,13.07-12.99
				c7.21,0,13.07,5.83,13.07,12.99C487.33,777.08,481.47,782.9,474.26,782.9z M474.26,762.43c-4.15,0-7.52,3.36-7.52,7.48
				c0,4.12,3.38,7.48,7.52,7.48c4.15,0,7.53-3.36,7.53-7.48C481.78,765.79,478.41,762.43,474.26,762.43z"/>
		</g>
		<g style="clip-path:url(#SVGID_00000157290069529739833290000002263197650774088339_);">
			<rect x="224.62" y="807.35" style="fill:#2E2E2E;" width="5.54" height="13.75"/>
		</g>
		<g style="clip-path:url(#SVGID_00000157290069529739833290000002263197650774088339_);">
			<rect x="616.65" y="807.35" style="fill:#2E2E2E;" width="5.54" height="13.75"/>
		</g>
		<g style="clip-path:url(#SVGID_00000157290069529739833290000002263197650774088339_);">
			<polygon style="fill:#1F8040;" points="147.21,283.72 216.33,333.59 195.6,379.42 253.5,412.06 197.6,465.53 216.83,509.09 
				183.28,554.94 126.38,590.98 126.38,344.72 			"/>
			<path style="fill:#2E2E2E;" d="M123.61,596V344.27l22.19-64.97l73.98,53.38l-20.62,45.59l58.93,33.22l-57.18,54.69l19.09,43.25
				l-34.79,47.56L123.61,596z M129.15,345.18v240.78l52.2-33.06l32.3-44.15l-19.37-43.87l54.61-52.24l-56.86-32.06l20.84-46.08
				l-64.25-46.35L129.15,345.18z"/>
		</g>
		<g style="clip-path:url(#SVGID_00000157290069529739833290000002263197650774088339_);">
			<polygon style="fill:#1F8040;" points="719.52,610.34 685.07,566.16 692.74,514.17 648.4,469.13 706.3,436.49 685.57,390.66 
				719.52,359.54 			"/>
			<path style="fill:#2E2E2E;" d="M722.29,618.39l-40.14-51.47l7.64-51.8l-45.9-46.62l58.83-33.17l-20.51-45.35l40.07-36.72V618.39z
				 M687.98,565.4l28.77,36.89V365.83l-27.83,25.51l20.94,46.31l-56.96,32.11l42.78,43.45L687.98,565.4z"/>
		</g>
		<g style="clip-path:url(#SVGID_00000157290069529739833290000002263197650774088339_);">
			<polygon style="fill:#FDF6BD;" points="525.74,943.93 319.8,943.93 340.4,902.99 505.15,902.99 			"/>
			<g>
				<path style="fill:#2E2E2E;" d="M530.23,946.69H315.32l23.37-46.46h168.18L530.23,946.69z M324.29,941.18h196.97l-17.82-35.43
					H342.11L324.29,941.18z"/>
			</g>
		</g>
		<g style="clip-path:url(#SVGID_00000157290069529739833290000002263197650774088339_);">
			<polygon style="fill:#FDF6BD;" points="653.3,883.65 193.09,883.65 227.18,838.4 619.21,838.4 			"/>
			<g>
				<path style="fill:#2E2E2E;" d="M658.84,886.41h-471.3l38.25-50.77h394.8L658.84,886.41z M198.63,880.89h449.13l-29.94-39.74
					H228.57L198.63,880.89z"/>
			</g>
		</g>
		<g style="clip-path:url(#SVGID_00000157290069529739833290000002263197650774088339_);">
			<polygon style="fill:#2E2E2E;" points="374.38,454.47 295.85,454.47 231.97,434.86 177.12,434.86 125,405 127.77,400.22 
				178.6,429.35 232.81,429.35 296.69,448.95 373.1,448.95 403.76,434.11 425.27,430.17 426.27,435.59 405.5,439.4 			"/>
		</g>
		<g style="clip-path:url(#SVGID_00000157290069529739833290000002263197650774088339_);">
			<polygon style="fill:#2E2E2E;" points="128.19,401.59 125.12,397 155.86,376.66 195.6,376.66 195.6,382.18 157.54,382.18 			"/>
		</g>
		<g style="clip-path:url(#SVGID_00000157290069529739833290000002263197650774088339_);">
			<polygon style="fill:#2E2E2E;" points="404.63,475.13 365.4,475.13 338.93,453.85 342.41,449.57 367.36,469.62 404.63,469.62 			
				"/>
		</g>
		<g style="clip-path:url(#SVGID_00000157290069529739833290000002263197650774088339_);">
			<polygon style="fill:#2E2E2E;" points="555.69,536.53 477.16,536.53 446.03,521.46 425.27,517.65 426.27,512.23 447.78,516.17 
				478.43,531.01 554.85,531.01 618.73,511.41 691.83,511.41 717.34,492.81 720.62,497.26 693.64,516.92 619.56,516.92 			"/>
		</g>
		<g style="clip-path:url(#SVGID_00000157290069529739833290000002263197650774088339_);">
			<polygon style="fill:#2E2E2E;" points="719.39,487.5 682.45,472.74 648.33,471.89 648.47,466.38 683.59,467.26 721.46,482.38 			
				"/>
		</g>
		<g style="clip-path:url(#SVGID_00000157290069529739833290000002263197650774088339_);">
			<polygon style="fill:#2E2E2E;" points="486.16,557.7 446.91,557.7 446.91,552.19 484.16,552.19 509.1,531.65 512.63,535.89 			
				"/>
		</g>
		<g style="clip-path:url(#SVGID_00000157290069529739833290000002263197650774088339_);">
			<polygon style="fill:#FDF6BD;" points="509.8,680.14 501.4,668.8 528.86,652.46 528.86,634.04 521.98,634.24 512.18,648.63 
				504.03,633.96 496.38,633.96 496.38,654.85 490.84,654.85 490.84,628.44 507.3,628.44 512.66,638.09 518.98,628.82 
				534.41,628.36 534.41,655.59 509.49,670.42 514.27,676.87 			"/>
		</g>
		<g style="clip-path:url(#SVGID_00000157290069529739833290000002263197650774088339_);">
			<polygon style="fill:#FDF6BD;" points="327.46,680.29 323.24,676.73 328.66,670.36 304.15,656.45 304.15,628.44 320.61,628.44 
				325.98,638.09 332.3,628.82 347.72,628.36 347.72,654.03 342.18,654.03 342.18,634.04 335.29,634.24 325.49,648.63 
				317.34,633.96 309.7,633.96 309.7,653.25 337.2,668.86 			"/>
		</g>
		
			<g id="Пташка_00000136378526735414844070000011541478898621357970_" style="clip-path:url(#SVGID_00000157290069529739833290000002263197650774088339_);">
			<g>
				<g>
					<path style="fill:#FDF6BD;" d="M290.52,401.23l-50.54,50.72L269,433.37l21.77-5.76l-1.25,13.11l-0.95,7.37l13.57-18.64
						c0,0,14.09,8.05,32.22,2.9c18.13-5.15,28.01-13.52,35.78-28.81c7.77-15.29,5.67-34.77,2.43-41.69
						c-3.24-6.92-7.26-26.35-7.26-26.35l10.17-8.94c0,0-5.18-1.56-12.79,0.37c0,0-7.36-10.47-22.09-7.25
						c-14.73,3.22-17.51,13.4-18.71,16.26c-4.41,10.55-1.13,7.56-12.14,22.37C298.75,373.12,290,402.09,290,402.09"/>
				</g>
				<g>
					<path style="fill:#2E2E2E;" d="M220.18,467.92l67.53-67.78c1.78-5.65,9.78-29.97,19.82-43.47c7.74-10.41,8.16-11.65,9.4-15.35
						c0.52-1.54,1.17-3.47,2.41-6.44c0.08-0.2,0.17-0.44,0.28-0.72c1.46-3.8,5.34-13.89,20.39-17.18
						c12.96-2.83,20.84,3.78,23.72,6.88c7.34-1.47,12.33-0.01,12.56,0.06l4.75,1.43l-12.68,11.15c1.02,4.7,4.18,18.75,6.72,24.19
						c3.33,7.13,6.03,27.37-2.47,44.09c-8.26,16.24-19.12,25-37.49,30.22c-14.94,4.24-27.22,0.1-32.1-2.05l-18.58,25.52l2.33-18.09
						l0.86-9.08l-17.5,4.63L220.18,467.92z M293.91,423.93l-1.33,13.97l8.79-12.07l2.16,1.24c0.12,0.07,13.36,7.38,30.08,2.64
						c16.94-4.81,26.49-12.49,34.07-27.4c7.2-14.16,5.41-32.82,2.39-39.28c-3.34-7.13-7.29-26.16-7.46-26.96l-0.32-1.56l6.52-5.73
						c-1.57,0.09-3.4,0.33-5.41,0.84l-1.86,0.47l-1.1-1.56c-0.25-0.35-6.58-8.9-19.23-6.14c-12.13,2.65-15.13,10.44-16.4,13.77
						c-0.13,0.33-0.24,0.62-0.34,0.86c-1.17,2.8-1.78,4.61-2.27,6.08c-1.51,4.48-2.29,6.24-10.2,16.88
						c-10.59,14.25-19.24,42.65-19.33,42.93l-0.06,0.15l-0.1,0.14l-32.69,32.81l8.07-5.17L293.91,423.93z"/>
				</g>
			</g>
			<g>
				<polygon style="fill:#2E2E2E;" points="324.96,450.97 323.18,435.92 328.69,435.27 330.47,450.32 				"/>
			</g>
			<g>
				<polygon style="fill:#2E2E2E;" points="305.22,429.97 300.94,426.46 329.77,391.73 334.04,395.24 				"/>
			</g>
			<g>
				<path style="fill:#2E2E2E;" d="M356.13,405.15l0.47-6.07c0.01-0.09,0.66-9.93-4.85-14.93c-6.25-5.66-8.11-6.98-8.19-7.03
					l-1.49-1.04l0.36-1.78c0.41-2,0.86-7.71-1.94-9.94c-2.81-2.23-7.42-2.09-7.47-2.09l-0.81,0.03l-11.68-6.81l11.47-7.52l2.09-6.52
					c-0.85-4.08-0.4-11.43,6.73-14.89c2.78-1.34,5.77-1.37,7.57-1.2l4.71-4.99l4.04,3.77l-6.77,7.17l-1.54-0.34
					c-0.02,0-3.16-0.64-5.59,0.54c-5.28,2.56-3.8,8.61-3.61,9.29l0.22,0.79l-0.24,0.79l-2.92,9.11l-5.67,3.71l2.64,1.54
					c1.95,0.05,6.74,0.48,10.28,3.29c4.6,3.65,4.51,10.41,4.17,13.61c1.27,1.03,3.55,2.95,7.36,6.41c4.36,3.95,5.91,9.66,6.44,13.87
					l11.33-8.45l3.33,4.41L356.13,405.15z"/>
			</g>
		</g>
		<g style="clip-path:url(#SVGID_00000157290069529739833290000002263197650774088339_);">
			<polygon style="fill:#2E2E2E;" points="164.33,698.84 138.97,581.87 144.39,580.71 169.75,697.67 			"/>
		</g>
		
			<g id="Пташка_00000004515549869565383050000010525280468771759287_" style="clip-path:url(#SVGID_00000157290069529739833290000002263197650774088339_);">
			<g>
				<g>
					<path style="fill:#FDF6BD;" d="M561.8,481.16l50.54,50.72l-29.02-18.59l-21.77-5.76l1.25,13.11l0.95,7.37l-13.57-18.64
						c0,0-14.09,8.05-32.22,2.9c-18.13-5.15-28.01-13.52-35.78-28.81c-7.77-15.29-5.67-34.77-2.43-41.69
						c3.24-6.92,7.26-26.35,7.26-26.35l-10.17-8.94c0,0,5.18-1.56,12.79,0.37c0,0,7.36-10.47,22.09-7.25
						c14.73,3.22,17.51,13.4,18.71,16.26c4.41,10.55,1.13,7.57,12.14,22.37c11.01,14.81,19.75,43.78,19.75,43.78"/>
				</g>
				<g>
					<path style="fill:#2E2E2E;" d="M582.19,515.85l-17.5-4.63l0.86,9.08l2.33,18.09l-18.58-25.52c-4.89,2.15-17.17,6.29-32.1,2.05
						c-18.38-5.22-29.24-13.97-37.49-30.22c-8.5-16.72-5.8-36.97-2.47-44.09c2.55-5.44,5.71-19.49,6.72-24.19l-12.68-11.15
						l4.75-1.43c0.22-0.07,5.22-1.53,12.56-0.06c2.88-3.1,10.76-9.71,23.72-6.88c15.05,3.29,18.93,13.38,20.39,17.18
						c0.11,0.27,0.2,0.51,0.28,0.72c1.24,2.97,1.89,4.9,2.41,6.44c1.25,3.7,1.66,4.94,9.4,15.35c10.04,13.5,18.04,37.82,19.82,43.47
						l67.53,67.78L582.19,515.85z M584.46,510.74l8.07,5.17l-32.69-32.81l-0.1-0.14l-0.06-0.15c-0.09-0.29-8.73-28.69-19.33-42.93
						c-7.91-10.64-8.7-12.4-10.2-16.88c-0.49-1.46-1.1-3.28-2.27-6.08c-0.1-0.24-0.21-0.53-0.34-0.86
						c-1.28-3.33-4.27-11.12-16.4-13.77c-12.65-2.76-18.97,5.78-19.23,6.14l-1.1,1.56l-1.86-0.47c-2.02-0.51-3.85-0.75-5.41-0.84
						l6.52,5.73l-0.32,1.56c-0.17,0.81-4.12,19.83-7.46,26.96c-3.02,6.46-4.81,25.12,2.39,39.28c7.58,14.91,17.13,22.59,34.07,27.4
						c16.72,4.75,29.95-2.57,30.08-2.64l2.16-1.24l8.79,12.07l-1.33-13.97L584.46,510.74z"/>
				</g>
			</g>
			<g>
				<polygon style="fill:#2E2E2E;" points="527.37,530.89 521.86,530.25 523.64,515.2 529.14,515.85 				"/>
			</g>
			<g>
				<polygon style="fill:#2E2E2E;" points="547.11,509.89 551.39,506.38 522.56,471.66 518.28,475.17 				"/>
			</g>
			<g>
				<path style="fill:#2E2E2E;" d="M496.2,485.08l-0.47-6.07c-0.01-0.09-0.66-9.93,4.85-14.93c6.25-5.66,8.11-6.98,8.19-7.03
					l1.49-1.04l-0.36-1.78c-0.41-2-0.86-7.71,1.94-9.94c2.81-2.23,7.42-2.09,7.47-2.09l0.81,0.03l11.68-6.81l-11.47-7.52l-2.09-6.52
					c0.85-4.08,0.4-11.43-6.73-14.89c-2.78-1.34-5.77-1.37-7.57-1.2l-4.71-4.99l-4.04,3.77l6.77,7.17l1.54-0.34
					c0.02,0,3.16-0.64,5.59,0.54c5.28,2.56,3.8,8.61,3.61,9.29l-0.22,0.79l0.24,0.79l2.92,9.11l5.67,3.71l-2.64,1.54
					c-1.95,0.05-6.74,0.48-10.28,3.29c-4.6,3.65-4.51,10.41-4.17,13.61c-1.27,1.03-3.55,2.95-7.37,6.41
					c-4.36,3.95-5.91,9.66-6.44,13.87l-11.33-8.45l-3.33,4.41L496.2,485.08z"/>
			</g>
		</g>
	</g>
	<g>
		<path style="fill:#2E2E2E;" d="M722.5,968h-600V396.36c0-79.7,31.21-154.62,87.87-210.98C267.03,129.03,342.37,98,422.5,98
			c80.13,0,155.47,31.04,212.13,87.39c56.66,56.35,87.87,131.28,87.87,210.98V968z M129.43,961.1h586.14V396.36
			c0-160.72-131.47-291.48-293.07-291.48c-161.6,0-293.07,130.76-293.07,291.48V961.1z"/>
	</g>
</g>
</svg>
